<?xml version="1.0" encoding="UTF-8" ?>
<!DOCTYPE svg PUBLIC "-//W3C//DTD SVG 1.1//EN" "http://www.w3.org/Graphics/SVG/1.1/DTD/svg11.dtd">
<svg width="1211pt" height="1211pt" viewBox="0 0 1211 1211" version="1.1" xmlns="http://www.w3.org/2000/svg">
<g id="#ffffffff">
<path fill="#ffffff" opacity="1.00" d=" M 841.54 512.70 C 924.33 464.86 1007.15 417.07 1089.95 369.26 C 1125.03 440.82 1143.66 520.30 1144.38 599.97 C 1145.33 683.13 1126.79 766.48 1090.25 841.22 C 1059.35 904.74 1015.76 962.03 962.89 1008.86 C 908.52 1057.12 844.31 1094.27 775.28 1117.12 C 691.53 1144.97 600.91 1151.55 513.95 1136.64 C 434.01 1123.03 357.36 1090.85 291.56 1043.49 C 239.66 1006.28 194.54 959.73 158.73 906.87 C 241.57 859.11 324.35 811.26 407.16 763.47 C 442.81 808.33 494.00 840.63 550.00 852.97 C 608.52 866.15 671.67 857.87 724.57 829.47 C 777.00 801.71 819.06 754.94 840.99 699.80 C 864.91 640.51 865.09 572.13 841.54 512.70 Z" />
<path fill="#ffffff" opacity="1.00" d=" M 585.50 424.75 C 623.13 420.53 662.02 428.37 694.95 447.11 C 726.66 464.99 752.78 492.60 768.81 525.29 C 784.62 557.15 790.53 593.73 785.96 628.98 C 782.04 659.81 769.95 689.54 751.30 714.39 C 732.64 739.39 707.46 759.49 678.90 772.05 C 644.94 787.12 606.32 791.23 569.91 783.96 C 537.87 777.64 507.69 762.37 483.52 740.43 C 460.20 719.35 442.44 692.16 432.68 662.27 C 420.45 625.17 420.66 584.11 433.25 547.13 C 444.26 514.50 464.84 485.22 491.71 463.70 C 518.42 442.14 551.37 428.43 585.50 424.75 Z" />
</g>
<g id="#333333ff">
<path fill="#333333" opacity="1.00" d=" M 595.31 0.00 L 615.63 0.00 C 698.00 1.34 780.10 19.51 855.13 53.60 C 956.98 99.57 1045.47 174.47 1107.87 267.15 C 1148.61 327.43 1178.33 395.14 1195.00 465.97 C 1204.64 506.77 1209.92 548.58 1211.00 590.48 L 1211.00 623.35 C 1208.57 702.21 1190.98 780.64 1158.63 852.65 C 1131.71 912.88 1094.80 968.60 1049.96 1016.99 C 1005.71 1064.77 953.76 1105.41 896.67 1136.74 C 832.12 1172.24 760.99 1195.71 687.99 1205.59 C 666.50 1208.58 644.85 1210.16 623.18 1211.00 L 590.35 1211.00 C 511.31 1209.05 432.66 1191.61 360.39 1159.49 C 281.07 1124.39 209.54 1071.92 152.07 1006.96 C 106.70 955.77 70.04 896.87 44.31 833.50 C 16.14 764.40 1.21 690.03 0.00 615.44 L 0.00 595.39 C 1.10 532.00 11.98 468.77 32.62 408.81 C 54.20 345.87 86.35 286.59 127.21 234.09 C 167.61 182.11 216.51 136.75 271.40 100.40 C 328.13 62.76 391.27 34.81 457.31 18.23 C 502.40 6.84 548.82 0.86 595.31 0.00 M 479.39 81.57 C 416.41 96.64 356.26 123.34 302.74 159.80 C 249.84 195.78 203.41 241.25 166.31 293.39 C 127.80 347.42 99.39 408.63 83.15 472.97 C 72.00 517.06 66.46 562.57 66.74 608.04 C 66.92 688.76 85.68 769.35 121.14 841.86 C 203.95 794.06 286.74 746.24 369.56 698.46 C 346.14 639.20 346.19 571.08 369.88 511.91 C 392.23 455.31 435.76 407.47 489.97 379.85 C 525.96 361.32 566.49 351.71 606.97 352.08 C 650.24 352.15 693.42 363.69 730.97 385.17 C 758.97 401.10 783.84 422.46 803.93 447.63 C 886.76 399.85 969.57 352.04 1052.36 304.20 C 1019.85 256.28 979.75 213.50 933.81 178.22 C 878.12 135.32 813.94 103.46 746.05 85.22 C 659.32 61.82 566.73 60.60 479.39 81.57 M 841.54 512.70 C 865.09 572.13 864.91 640.51 840.99 699.80 C 819.06 754.94 777.00 801.71 724.57 829.47 C 671.67 857.87 608.52 866.15 550.00 852.97 C 494.00 840.63 442.81 808.33 407.16 763.47 C 324.35 811.26 241.57 859.11 158.73 906.87 C 194.54 959.73 239.66 1006.28 291.56 1043.49 C 357.36 1090.85 434.01 1123.03 513.95 1136.64 C 600.91 1151.55 691.53 1144.97 775.28 1117.12 C 844.31 1094.27 908.52 1057.12 962.89 1008.86 C 1015.76 962.03 1059.35 904.74 1090.25 841.22 C 1126.79 766.48 1145.33 683.13 1144.38 599.97 C 1143.66 520.30 1125.03 440.82 1089.95 369.26 C 1007.15 417.07 924.33 464.86 841.54 512.70 M 585.50 424.75 C 551.37 428.43 518.42 442.14 491.71 463.70 C 464.84 485.22 444.26 514.50 433.25 547.13 C 420.66 584.11 420.45 625.17 432.68 662.27 C 442.44 692.16 460.20 719.35 483.52 740.43 C 507.69 762.37 537.87 777.64 569.91 783.96 C 606.32 791.23 644.94 787.12 678.90 772.05 C 707.46 759.49 732.64 739.39 751.30 714.39 C 769.95 689.54 782.04 659.81 785.96 628.98 C 790.53 593.73 784.62 557.15 768.81 525.29 C 752.78 492.60 726.66 464.99 694.95 447.11 C 662.02 428.37 623.13 420.53 585.50 424.75 Z" />
</g>
<g id="#ed1b24ff">
<path fill="#ed1b24" opacity="1.00" d=" M 479.39 81.57 C 566.73 60.60 659.32 61.82 746.05 85.22 C 813.94 103.46 878.12 135.32 933.81 178.22 C 979.75 213.50 1019.85 256.28 1052.36 304.20 C 969.57 352.04 886.76 399.85 803.93 447.63 C 783.84 422.46 758.97 401.10 730.97 385.17 C 693.42 363.69 650.24 352.15 606.97 352.08 C 566.49 351.71 525.96 361.32 489.97 379.85 C 435.76 407.47 392.23 455.31 369.88 511.91 C 346.19 571.08 346.14 639.20 369.56 698.46 C 286.74 746.24 203.95 794.06 121.14 841.86 C 85.68 769.35 66.92 688.76 66.74 608.04 C 66.46 562.57 72.00 517.06 83.15 472.97 C 99.39 408.63 127.80 347.42 166.31 293.39 C 203.41 241.25 249.84 195.78 302.74 159.80 C 356.26 123.34 416.41 96.64 479.39 81.57 Z" />
</g>
</svg>
